<svg width="357" height="163" viewBox="0 0 357 163" fill="none" xmlns="http://www.w3.org/2000/svg">
<path d="M92.422 106.732C74.3194 106.425 59.1076 102.723 59.2762 81.4617V15H15.0006V84.6449C14.8318 133.591 49.9018 147.698 92.422 147.827V106.732Z" fill="white" fill-opacity="0.5"/>
<path d="M264.963 106.732C283.065 106.425 298.277 102.723 298.108 81.4617V15H342.384V84.6449C342.553 133.591 307.483 147.872 264.963 148L264.963 106.732Z" fill="white" fill-opacity="0.5"/>
<path d="M92.422 106.753H264.963V148L92.422 147.827V106.753Z" fill="white" fill-opacity="0.5"/>
<path d="M33.6087 140.502C47.6901 150.176 65.9721 154.103 85.192 154.9V155.049L92.4002 155.056L92.4147 155.057L99.652 155.078V155.064L257.732 155.223V155.252L264.955 155.23L264.969 155.23L272.193 155.237V155.071C291.423 154.266 309.707 150.298 323.788 140.58C340.121 129.308 349.701 111.081 349.614 84.6381V15V7.77H342.384H298.108H290.878V15V81.4617V81.4903L290.879 81.519C290.914 85.985 290.138 89.0049 289.091 91.081C288.076 93.0932 286.628 94.5802 284.671 95.7527C280.4 98.3122 273.784 99.3516 264.84 99.5031L263.658 99.5232H93.7271L92.5445 99.5031C83.6008 99.3516 76.9851 98.3122 72.7133 95.7527C70.7563 94.5802 69.3087 93.0932 68.294 91.081C67.247 89.0049 66.4705 85.985 66.5059 81.519L66.5062 81.4903V81.4617V15V7.77H59.2762H15.0006H7.7706V15V84.6326C7.68247 111.08 17.265 129.272 33.6087 140.502Z" stroke="white" stroke-opacity="0.5" stroke-width="14.46"/>
</svg>
